# AST/ASF file generated using VICON BodyLanguage
# -----------------------------------------------
:version 1.10
:name VICON
:units
  mass 1.0
  length 0.45
  angle deg
:documentation
   .ast/.asf automatically generated from VICON data using
   VICON BodyBuilder and BodyLanguage model FoxedUp or BRILLIANT.MOD
:root
   order TX TY TZ RX RY RZ
   axis XYZ
   position 0 0 0  
   orientation 0 0 0 
:bonedata
  begin
     id 1 
     name lhipjoint
     direction 0.535335 -0.74333 0.401095 
     length 2.04549 
     axis 0 0 0  XYZ
  end
  begin
     id 2 
     name lfemur
     direction 0.34202 -0.939693 0  
     length 6.95643  
     axis 0 0 20  XYZ
    dof rx ry rz
    limits (-160.0 20.0)
           (-70.0 70.0)
           (-60.0 70.0)
  end
  begin
     id 3 
     name ltibia
     direction 0.34192 -0.939729 0   
     length 5.55969   
     axis 0 0 20   XYZ
    dof rx
    limits (-10.0 170.0)
  end
  begin
     id 4 
     name lfoot
     direction 0.216943 -0.596046 0.773088   
     length 2.27918   
     axis -90 7.62852e-016 20   XYZ
    dof rx rz
    limits (-45.0 90.0)
           (-70.0 20.0)
  end
  begin
     id 5 
     name ltoes
     direction 1.53519e-011 -4.21748e-011 1   
     length 1.05562   
     axis -90 7.62852e-016 20   XYZ
    dof rx
    limits (-90.0 20.0)
  end
  begin
     id 6 
     name rhipjoint
     direction -0.576368 -0.719173 0.38806   
     length 2.1142  
     axis 0 0 0  XYZ 
  end
  begin
     id 7 
     name rfemur
     direction -0.34202 -0.939693 0   
     length 7.07928   
     axis 0 0 -20   XYZ
    dof rx ry rz
    limits (-160.0 20.0)
           (-70.0 70.0)
           (-70.0 60.0)
  end
  begin
     id 8 
     name rtibia
     direction -0.34202 -0.939693 0   
     length 5.79974   
     axis 0 0 -20   XYZ
    dof rx
    limits (-10.0 170.0)
 end
 begin
     id 9 
     name rfoot
     direction -0.189288 -0.520065 0.832888   
     length 2.42173  
     axis -90 -7.62852e-016 -20   XYZ
    dof rx rz
    limits (-45.0 90.0)
           (-20.0 70.0)
  end
  begin
     id 10 
     name rtoes
     direction -1.53574e-011 -4.21658e-011 1   
     length 1.14469   
     axis -90 -7.62852e-016 -20   XYZ
    dof rx
    limits (-90.0 20.0)
  end
  begin
     id 11 
     name lowerback
     direction -0.00135702 0.993803 0.111144   
     length 1.91308   
     axis 0 0 0   XYZ
    dof rx ry rz
    limits (-20.0 45.0)
           (-30.0 30.0)
           (-30.0 30.0)
  end
  begin
     id 12 
     name upperback
     direction -0.0056745 0.999813 0.0184631   
     length 1.9212   
     axis 0 0 0   XYZ
    dof rx ry rz
    limits (-20.0 45.0)
           (-30.0 30.0)
           (-30.0 30.0)
  end
  begin
     id 13 
     name thorax
     direction -0.00733434 0.999426 -0.0330788   
     length 1.94196   
     axis 0 0 0   XYZ
    dof rx ry rz
    limits (-20.0 45.0)
           (-30.0 30.0)
           (-30.0 30.0)
  end
  begin
     id 14 
     name lowerneck
     direction 0.0563074 0.996944 -0.0541571   
     length 2.34257   
     axis 0 0 0   XYZ
    dof rx ry rz
    limits (-20.0 45.0)
           (-30.0 30.0)
           (-30.0 30.0)
  end
  begin
     id 15 
     name upperneck
     direction -0.0544519 0.976166 -0.210085   
     length 2.32506   
     axis 0 0 0   XYZ
    dof rx ry rz
    limits (-20.0 45.0)
           (-30.0 30.0)
           (-30.0 30.0)
  end
  begin
     id 16
     name head
     direction -0.0226035 0.997615 -0.0652205  
     length 2.3648  
     axis 0 0 0   XYZ
    dof rx ry rz
    limits (-20.0 45.0)
           (-30.0 30.0)
           (-30.0 30.0)
  end
  begin
     id 17 
     name lclavicle
     direction 0.92109 0.381297 -0.0787716  
     length 4.0487  
     axis 0 0 0   XYZ
    dof ry rz
    limits (-20.0 10.0)
           (0.0 20.0)
  end
  begin
     id 18 
     name lhumerus
     direction 1 -4.48986e-011 3.56724e-027   
     length 4.94991   
     axis 180 -30 -90   XYZ
    dof rx ry rz
    limits (-60.0 90.0)
           (-90.0 90.0)
           (-90.0 90.0)
  end
  begin
     id 19
     name lradius
     direction 1 -4.48981e-011 8.62147e-027   
     length 2.7606   
     axis 180 -30 -90   XYZ
    dof rx
    limits (-10.0 170.0)
  end
  begin
     id 20
     name lwrist
     direction 1 -4.48989e-011 1.59799e-026   
     length 1.3803   
     axis -1.17785e-014 90 90   XYZ
    dof ry
    limits (-180.0 0.0)
 end
  begin
     id 21 
     name lhand
     direction 1 -4.48896e-011 3.19599e-026   
     length 0.843936   
     axis -2.03931e-014 90 90   XYZ
    dof rx rz
    limits (-90.0 90.0)
           (-45.0 45.0)
  end
  begin
     id 22 
     name lfingers
     direction 1 -4.48887e-011 6.39197e-026   
     length 0.680403   
     axis -4.07862e-014 90 90   XYZ
    dof rx
    limits (0.0 90.0)
  end
  begin
     id 23
     name lthumb
     direction 0.707107 -6.348e-011 0.707107   
     length 0.976926   
     axis -90 45 2.85299e-015   XYZ
    dof rx rz
    limits (-45.0 45.0)
           (-45.0 45.0)
  end
  begin
     id 24 
     name rclavicle
     direction -0.951104 0.307692 -0.026953   
     length 4.21801  
     axis 0 0 0   XYZ 
    dof ry rz
    limits (-10.0 20.0)
           (-20.0 0.0)
  end
  begin
     id 25 
     name rhumerus
     direction -1 -4.4896e-011 -1.8171e-018  
     length 4.32982   
     axis 180 30 90   XYZ
    dof rx ry rz
    limits (-90.0 60.0)
           (-90.0 90.0)
           (-90.0 90.0)
  end
  begin
     id 26 
     name rradius
     direction -1 -4.48959e-011 8.25165e-027   
     length 3.20057   
     axis 180 30 90   XYZ
    dof rx
    limits (-10.0 170.0)
  end
  begin
     id 27 
     name rwrist
     direction -1 -4.48997e-011 1.59799e-026   
     length 1.60029   
     axis -1.17785e-014 -90 -90   XYZ
    dof ry
    limits (-180.0 0.0)
  end
  begin
     id 28
     name rhand
     direction -1 -4.49023e-011 3.19599e-026   
     length 0.960433   
     axis -2.03931e-014 -90 -90   XYZ
    dof rx rz
    limits (-90.0 90.0)
           (-45.0 45.0)
  end
  begin
     id 29
     name rfingers
     direction -1 -4.48802e-011 6.39197e-026   
     length 0.774326   
     axis -4.07862e-014 -90 -90   XYZ
    dof rx
    limits (0.0 90.0)
  end
  begin
     id 30
     name rthumb
     direction -0.707107 -6.34876e-011 0.707107   
     length 1.11178   
     axis -90 -45 -2.85299e-015   XYZ
    dof rx rz
    limits (-45.0 45.0)
           (-45.0 45.0)
  end
:hierarchy
  begin
    root lhipjoint rhipjoint lowerback
    lhipjoint lfemur
    lfemur ltibia
    ltibia lfoot
    lfoot ltoes
    rhipjoint rfemur
    rfemur rtibia
    rtibia rfoot
    rfoot rtoes
    lowerback upperback
    upperback thorax
    thorax lowerneck lclavicle rclavicle
    lowerneck upperneck
    upperneck head
    lclavicle lhumerus
    lhumerus lradius
    lradius lwrist
    lwrist lhand lthumb
    lhand lfingers
    rclavicle rhumerus
    rhumerus rradius
    rradius rwrist
    rwrist rhand rthumb
    rhand rfingers
end

#!OML:ASF C:\KaitlinTest1\Natural Motions\Nikki\Session 2\Nikki.ASF
:FULLY-SPECIFIED
:DEGREES
383
root -13.417 16.7649 4.97712 -338.938 94.6123 -352.865
lowerback -15.1793 -1.07144 3.3598
upperback -6.74702 -1.47556 -0.709999
thorax 1.24515 -0.650076 -2.86989
lowerneck -14.3967 -15.0106 -6.58922
upperneck 3.80519 41.2303 5.24554
head 164.876 56.2704 -40.5435
rclavicle 1.30701e-014 4.77083e-015
rhumerus -65.798 -38.6251 -40.2313
rradius 15.4951
rwrist 27.632
rhand -41.5867 1.40184
rfingers 7.12502
rthumb -14.497 -28.0717
lclavicle 1.30701e-014 4.77083e-015
lhumerus -79.8078 33.5337 28.5341
lradius 18.9129
lwrist -54.7122
lhand -36.2844 7.71715
lfingers 7.12502
lthumb -9.38424 37.4883
rfemur -12.4795 -20.0873 21.3508
rtibia 12.0689
rfoot -11.5726 11.7405
rtoes 4.77083e-014
lfemur -19.5441 22.8256 -22.1274
ltibia 14.245
lfoot -2.33981 -25.4425
ltoes 6.20208e-014
384
root -13.4235 16.7627 4.97602 -340.003 94.764 -353.817
lowerback -15.1576 -1.10936 3.26665
upperback -6.74617 -1.51159 -0.71658
thorax 1.23506 -0.666427 -2.82918
lowerneck -14.0446 -14.99 -6.64118
upperneck 3.88264 41.1215 5.28048
head 164.864 56.4954 -40.5138
rclavicle 1.88348e-014 -2.98177e-015
rhumerus -65.3238 -38.0188 -41.3204
rradius 15.7623
rwrist 26.3455
rhand -41.3156 1.25236
rfingers 7.12502
rthumb -14.2358 -28.2398
lclavicle 1.88348e-014 -2.98177e-015
lhumerus -80.0755 34.0044 27.6909
lradius 18.8445
lwrist -54.3671
lhand -36.7298 8.08416
lfingers 7.12502
lthumb -9.81392 37.8355
rfemur -12.3822 -20.6836 21.2871
rtibia 12.0272
rfoot -11.5221 12.2573
rtoes 2.38542e-015
lfemur -19.408 22.1209 -22.0152
ltibia 14.3517
lfoot -2.39707 -24.9076
ltoes 1.90833e-014
385
root -13.4293 16.7607 4.97603 -339.979 94.9448 -353.63
lowerback -15.1323 -1.11637 3.25883
upperback -6.67057 -1.5259 -0.689094
thorax 1.30177 -0.672846 -2.79858
lowerneck -13.8178 -15.0137 -6.72191
upperneck 3.88778 40.9008 5.2512
head 164.775 56.7257 -40.5149
rclavicle 5.61567e-015 5.36719e-015
rhumerus -64.5384 -37.3166 -42.8275
rradius 16.0929
rwrist 24.6254
rhand -40.9465 0.865777
rfingers 7.12502
rthumb -13.8801 -28.651
lclavicle 5.61567e-015 5.36719e-015
lhumerus -80.0494 34.4748 27.2839
lradius 18.7548
lwrist -53.828
lhand -37.0189 8.36259
lfingers 7.12502
lthumb -10.0929 38.1005
rfemur -12.2189 -21.1901 21.306
rtibia 11.9849
rfoot -11.4078 12.6618
rtoes 1.82882e-014
lfemur -19.2668 21.6455 -21.8287
ltibia 14.4631
lfoot -2.59167 -24.574
ltoes 5.725e-014
386
root -13.4374 16.7576 4.97831 -339.833 95.1538 -353.334
lowerback -14.8956 -1.12988 3.30016
upperback -6.73812 -1.53875 -0.697864
thorax 1.1023 -0.684306 -2.82626
lowerneck -13.4127 -14.9971 -6.81382
upperneck 3.95808 40.7584 5.29198
head 164.927 56.887 -40.353
rclavicle -9.26834e-015 -1.15295e-014
rhumerus -64.0794 -36.6007 -44.0648
rradius 16.3888
rwrist 23.2104
rhand -40.5625 0.699301
rfingers 7.12502
rthumb -13.5099 -28.8425
lclavicle -9.26834e-015 -1.15295e-014
lhumerus -79.5562 34.5292 27.8414
lradius 18.8693
lwrist -52.2961
lhand -37.0147 8.98135
lfingers 7.12502
lthumb -10.0888 38.7195
rfemur -12.0528 -21.4644 21.3441
rtibia 11.9437
rfoot -11.3253 12.8018
rtoes 4.29375e-014
lfemur -19.123 21.1288 -21.6091
ltibia 14.5553
lfoot -2.53445 -24.2439
ltoes 3.33958e-014
387
root -13.4457 16.7564 4.97914 -340.225 95.2799 -353.62
lowerback -14.7063 -1.14634 3.28185
upperback -6.82516 -1.54691 -0.702589
thorax 0.909817 -0.691503 -2.81613
lowerneck -13.0007 -15.0302 -6.86458
upperneck 3.98871 40.3441 5.23583
head 164.499 57.3982 -40.5238
rclavicle 3.3048e-015 9.34288e-015
rhumerus -63.7666 -36.0564 -44.8929
rradius 16.5655
rwrist 22.3495
rhand -40.1475 0.737983
rfingers 7.12502
rthumb -13.11 -28.8299
lclavicle 3.3048e-015 9.34288e-015
lhumerus -79.2269 34.6614 28.1388
lradius 18.8724
lwrist -51.0898
lhand -37.1612 8.95873
lfingers 7.12502
lthumb -10.2302 38.69
rfemur -11.9461 -21.5953 21.3191
rtibia 11.9237
rfoot -11.2721 12.8622
rtoes -5.725e-014
lfemur -19.0583 20.7233 -21.5171
ltibia 14.6527
lfoot -2.73744 -23.93
ltoes -1.59028e-014
388
root -13.4531 16.7541 4.98142 -339.64 95.3913 -352.855
lowerback -14.4222 -1.08238 3.37502
upperback -6.8774 -1.4638 -0.752942
thorax 0.705044 -0.657711 -2.90183
lowerneck -12.615 -15.0489 -6.94663
upperneck 4.02845 40.1233 5.27358
head 164.718 57.5567 -40.3093
rclavicle -2.62396e-014 -6.95746e-015
rhumerus -63.6825 -35.834 -45.4206
rradius 16.6621
rwrist 21.775
rhand -39.71 0.610696
rfingers 7.12502
rthumb -12.6882 -28.9839
lclavicle -2.62396e-014 -6.95746e-015
lhumerus -78.5405 34.7217 28.7143
lradius 18.8548
lwrist -49.7443
lhand -36.9762 9.02722
lfingers 7.12502
lthumb -10.0517 38.7672
rfemur -11.7656 -21.5682 21.3565
rtibia 11.941
rfoot -11.1924 12.7542
rtoes -3.97569e-015
lfemur -18.8813 20.4989 -21.3167
ltibia 14.6766
lfoot -2.77522 -23.7531
ltoes -1.90833e-014
389
root -13.4622 16.751 4.98271 -340.33 95.3792 -353.381
lowerback -14.2114 -1.02525 3.29546
upperback -6.88551 -1.37388 -0.769258
thorax 0.593478 -0.614662 -2.85628
lowerneck -12.3236 -15.1206 -7.03644
upperneck 4.00502 39.6775 5.18351
head 164.354 57.9847 -40.4419
rclavicle 3.14825e-014 4.77083e-015
rhumerus -63.3671 -35.6705 -45.9498
rradius 16.6622
rwrist 21.2958
rhand -39.4459 0.475329
rfingers 7.12502
rthumb -12.4336 -29.1349
lclavicle 3.14825e-014 4.77083e-015
lhumerus -77.5637 34.6603 30.1667
lradius 19.0369
lwrist -48.0599
lhand -36.8235 9.02663
lfingers 7.12502
lthumb -9.90439 38.7736
rfemur -11.6124 -21.3494 21.248
rtibia 11.9866
rfoot -11.2184 12.4979
rtoes 1.28017e-013
lfemur -18.7084 20.4838 -21.3159
ltibia 14.6516
lfoot -2.7585 -23.7408
ltoes 4.13472e-014
390
root -13.4703 16.7527 4.98612 -340.864 95.2899 -353.76
lowerback -14.0727 -1.11492 3.18309
upperback -6.65088 -1.49463 -0.865432
thorax 0.759639 -0.676083 -2.91019
lowerneck -12.6131 -15.1367 -6.57243
upperneck 3.79085 39.012 5.15091
head 163.654 59.001 -40.9681
rclavicle -2.88735e-014 -1.96797e-014
rhumerus -62.9881 -36.5031 -46.0457
rradius 16.3272
rwrist 22.2786
rhand -39.0972 0.547999
rfingers 7.12502
rthumb -12.0974 -29.0823
lclavicle -2.88735e-014 -1.96797e-014
lhumerus -76.4773 35.1709 31.0824
lradius 19.0449
lwrist -46.5297
lhand -36.745 8.77973
lfingers 7.12502
lthumb -9.82861 38.5303
rfemur -11.4486 -20.6968 21.0721
rtibia 12.0427
rfoot -11.0081 11.894
rtoes -8.18993e-014
lfemur -18.5643 20.6758 -21.3525
ltibia 14.6053
lfoot -2.68167 -23.9045
ltoes -5.88403e-014
391
root -13.4789 16.7508 4.98982 -340.952 95.2198 -353.693
lowerback -14.2792 -1.02084 3.1148
upperback -6.33078 -1.39151 -0.839717
thorax 1.21789 -0.617782 -2.83913
lowerneck -12.775 -15.2544 -6.6387
upperneck 3.57659 38.3624 4.94495
head 163.063 59.5785 -41.2965
rclavicle 1.51573e-015 1.45113e-014
rhumerus -62.5373 -37.2519 -46.0267
rradius 16.1363
rwrist 22.9477
rhand -38.9361 0.341991
rfingers 7.12502
rthumb -11.942 -29.2974
lclavicle 1.51573e-015 1.45113e-014
lhumerus -75.1464 35.5954 32.6384
lradius 19.0551
lwrist -45.5536
lhand -36.2716 8.7247
lfingers 7.12502
lthumb -9.37191 38.4964
rfemur -11.2853 -20.096 20.9857
rtibia 12.0793
rfoot -10.9254 11.3379
rtoes -4.92986e-014
lfemur -18.3827 20.7004 -21.2868
ltibia 14.5616
lfoot -2.53627 -23.8837
ltoes -5.08889e-014
392
root -13.4839 16.7501 4.99316 -340.474 95.0773 -353.113
lowerback -14.2278 -0.899644 3.11017
upperback -6.30373 -1.23332 -0.818924
thorax 1.23104 -0.539049 -2.79078
lowerneck -12.611 -15.3248 -6.77862
upperneck 3.55324 38.0816 4.8521
head 162.807 59.7662 -41.3858
rclavicle 2.73329e-016 -5.96354e-016
rhumerus -62.3532 -37.5499 -46.0615
rradius 15.9561
rwrist 23.395
rhand -38.7204 0.312779
rfingers 7.12502
rthumb -11.7341 -29.3386
lclavicle 2.73329e-016 -5.96354e-016
lhumerus -73.6522 35.2849 34.9581
lradius 19.2616
lwrist -44.0088
lhand -36.2041 8.30388
lfingers 7.12502
lthumb -9.3067 38.0785
rfemur -11.161 -19.5204 20.954
rtibia 12.0743
rfoot -10.8686 10.8859
rtoes -3.18055e-015
lfemur -18.2859 21.035 -21.2691
ltibia 14.5197
lfoot -2.60887 -24.0167
ltoes 1.27222e-014
393
root -13.488 16.7509 4.99706 -339.581 94.957 -352.107
lowerback -14.2292 -0.895346 3.13193
upperback -6.21543 -1.23787 -0.827352
thorax 1.32372 -0.541669 -2.81367
lowerneck -12.609 -15.284 -6.67755
upperneck 3.56827 38.1004 4.89115
head 162.748 59.892 -41.4608
rclavicle -1.35671e-014 1.98785e-015
rhumerus -62.442 -38.443 -45.4893
rradius 15.5923
rwrist 24.9518
rhand -38.6251 0.471057
rfingers 7.12502
rthumb -11.6421 -29.1855
lclavicle -1.35671e-014 1.98785e-015
lhumerus -72.347 35.1549 36.7521
lradius 19.4427
lwrist -42.8283
lhand -36.0298 7.84848
lfingers 7.12502
lthumb -9.1386 37.6305
rfemur -11.0299 -19.1097 20.9733
rtibia 12.0745
rfoot -10.8804 10.6059
rtoes -7.87187e-014
lfemur -18.204 21.5246 -21.227
ltibia 14.508
lfoot -2.5506 -24.3803
ltoes -1.59028e-014
394
root -13.4911 16.7513 5.00215 -339.072 94.8158 -351.507
lowerback -14.2496 -0.922345 3.07249
upperback -6.20448 -1.2675 -0.828249
thorax 1.34581 -0.555334 -2.78594
lowerneck -12.4655 -15.1992 -6.61094
upperneck 3.68024 38.3372 4.98074
head 162.831 59.8155 -41.4325
rclavicle 1.63003e-014 1.11319e-014
rhumerus -62.02 -38.5814 -46.08
rradius 15.4621
rwrist 25.3988
rhand -38.6011 0.265012
rfingers 7.12502
rthumb -11.619 -29.3929
lclavicle 1.63003e-014 1.11319e-014
lhumerus -70.9104 34.6268 39.0743
lradius 19.7661
lwrist -41.4716
lhand -35.6059 7.99118
lfingers 7.12502
lthumb -8.72953 37.7907
rfemur -10.9263 -18.6783 20.9417
rtibia 12.0872
rfoot -10.8216 10.333
rtoes 1.29608e-013
lfemur -18.1421 22.0154 -21.2255
ltibia 14.518
lfoot -2.53409 -24.741
ltoes 9.06458e-014
395
root -13.4953 16.7517 5.00862 -338.973 94.6563 -351.358
lowerback -14.2974 -0.989544 2.95437
upperback -6.19747 -1.34145 -0.868347
thorax 1.37604 -0.590283 -2.77323
lowerneck -12.3798 -15.0935 -6.42117
upperneck 3.79844 38.6214 5.12142
head 162.923 59.7855 -41.4435
rclavicle -2.39784e-014 -7.95139e-015
rhumerus -61.9045 -39.1702 -46.0654
rradius 15.0983
rwrist 26.7489
rhand -38.6953 0.242838
rfingers 7.12502
rthumb -11.7098 -29.4099
lclavicle -2.39784e-014 -7.95139e-015
lhumerus -69.4821 34.1261 41.1678
lradius 20.003
lwrist -40.1077
lhand -35.1554 7.85844
lfingers 7.12502
lthumb -8.29474 37.6756
rfemur -10.9266 -18.434 20.9131
rtibia 12.1625
rfoot -10.8286 10.2227
rtoes -7.71285e-014
lfemur -18.1253 22.4594 -21.2754
ltibia 14.4953
lfoot -2.46365 -25.0212
ltoes -2.70347e-014
